<?xml version="1.0" standalone="no"?><!DOCTYPE svg PUBLIC "-//W3C//DTD SVG 1.1//EN" "http://www.w3.org/Graphics/SVG/1.1/DTD/svg11.dtd"><svg t="1627455856630" class="icon" viewBox="0 0 1024 1024" version="1.1" xmlns="http://www.w3.org/2000/svg" p-id="3476" xmlns:xlink="http://www.w3.org/1999/xlink" width="200" height="200"><defs><style type="text/css">@font-face { font-family: feedback-iconfont; src: url("//at.alicdn.com/t/font_1031158_1uhr8ri0pk5.eot?#iefix") format("embedded-opentype"), url("//at.alicdn.com/t/font_1031158_1uhr8ri0pk5.woff2") format("woff2"), url("//at.alicdn.com/t/font_1031158_1uhr8ri0pk5.woff") format("woff"), url("//at.alicdn.com/t/font_1031158_1uhr8ri0pk5.ttf") format("truetype"), url("//at.alicdn.com/t/font_1031158_1uhr8ri0pk5.svg#iconfont") format("svg"); }
</style></defs><path d="M403.2 160c25.6 0 51.2 12.8 64 36.266667l38.4 66.133333c2.133333 4.266667 6.4 4.266667 8.533333 4.266667H853.333333c40.533333 0 74.666667 34.133333 74.666667 74.666666v448c0 40.533333-34.133333 74.666667-74.666667 74.666667H170.666667c-40.533333 0-74.666667-34.133333-74.666667-74.666667V234.666667c0-40.533333 34.133333-74.666667 74.666667-74.666667h232.533333z m87.466667 256H253.866667c-17.066667 2.133333-29.866667 14.933333-29.866667 32s14.933333 32 32 32h236.8c17.066667-2.133333 29.866667-14.933333 29.866667-32s-14.933333-32-32-32z" p-id="3477"></path></svg>